<?xml version="1.0" encoding="UTF-8" standalone="no"?>
<!DOCTYPE svg PUBLIC "-//W3C//DTD SVG 1.1//EN" "http://www.w3.org/Graphics/SVG/1.1/DTD/svg11.dtd">
<svg width="100%" height="100%" viewBox="0 0 4961 3508" version="1.1" xmlns="http://www.w3.org/2000/svg" xmlns:xlink="http://www.w3.org/1999/xlink" xml:space="preserve" xmlns:serif="http://www.serif.com/" style="fill-rule:evenodd;clip-rule:evenodd;stroke-linecap:round;stroke-miterlimit:10;">
    <g transform="matrix(0.447938,0,0,0.447938,933.189,271.87)">
        <text x="558px" y="1753.94px" style="font-family:'CascadiaCode-Italic', 'Cascadia Code', monospace;font-style:italic;font-size:1578.84px;">Time</text>
        <g transform="matrix(1578.84,0,0,1578.84,8883.92,3332.78)">
        </g>
        <text x="4258.41px" y="3332.78px" style="font-family:'CascadiaCode-Italic', 'Cascadia Code', monospace;font-style:italic;font-size:1578.84px;">Titan</text>
    </g>
    <g transform="matrix(1,0,0,1,31,73)">
        <circle cx="1301" cy="2258" r="1024" style="fill:rgb(163,219,232);"/>
    </g>
    <g transform="matrix(0.306368,0.951913,-0.645914,0.207884,2291.58,-213.794)">
        <g transform="matrix(0.306368,-1.40288,0.951913,0.451509,-498.554,3311.33)">
            <path d="M1771.8,2441.43C1763.22,2452.24 1747.48,2454.04 1736.68,2445.45C1725.88,2436.87 1724.07,2421.13 1732.66,2410.33L1793.44,2333.83L1699.45,2307.14C1686.17,2303.37 1678.46,2289.54 1682.23,2276.26C1685.99,2262.99 1699.83,2255.27 1713.1,2259.04L1843.17,2295.97C1851.21,2298.25 1857.58,2304.4 1860.14,2312.36C1862.7,2320.32 1861.12,2329.03 1855.92,2335.57L1771.8,2441.43Z"/>
            <path d="M1828.68,2296.22C1841.82,2291.99 1855.91,2299.23 1860.14,2312.36C1864.37,2325.49 1857.14,2339.59 1844,2343.82L1339.66,2506.14C1326.53,2510.37 1312.43,2503.13 1308.2,2490C1303.98,2476.87 1311.21,2462.77 1324.34,2458.54L1828.68,2296.22Z"/>
        </g>
    </g>
    <g transform="matrix(1,0,0,1,55,73)">
        <circle cx="2217.5" cy="2490.5" r="791.5" style="fill:rgb(44,152,216);"/>
    </g>
    <g transform="matrix(1,0,0,0.925308,0,191.472)">
        <g transform="matrix(1,-0,-0,1.08072,0,-206.928)">
            <path d="M2347.5,1953.5L2272.5,1841L2197.5,1953.5" style="fill:none;stroke:black;stroke-width:50px;"/>
            <path d="M2272.5,1841L2272.5,2563.5" style="fill:none;stroke:black;stroke-width:50px;stroke-linejoin:round;stroke-miterlimit:1.5;"/>
        </g>
    </g>
    <g transform="matrix(1,0,0,1.40793,-940.5,-1126.88)">
        <g transform="matrix(1,-0,-0,0.710263,940.5,800.385)">
            <path d="M1407,1495.5L1332,1383L1257,1495.5" style="fill:none;stroke:black;stroke-width:50px;"/>
            <path d="M1332,1383L1332,2482.34" style="fill:none;stroke:black;stroke-width:50px;stroke-linejoin:round;stroke-miterlimit:1.5;"/>
        </g>
    </g>
    <g transform="matrix(0.306368,0.951913,-0.645914,0.207884,3232.08,-132.634)">
        <g transform="matrix(0.306368,-1.40288,0.951913,0.451509,-863.951,4594.1)">
            <path d="M2712.3,2522.59C2703.72,2533.39 2687.98,2535.2 2677.18,2526.61C2666.38,2518.03 2664.57,2502.29 2673.16,2491.49L2733.94,2414.99L2639.95,2388.3C2626.67,2384.53 2618.96,2370.7 2622.73,2357.43C2626.49,2344.15 2640.33,2336.43 2653.6,2340.2L2783.67,2377.13C2791.71,2379.41 2798.08,2385.56 2800.64,2393.52C2803.2,2401.48 2801.62,2410.19 2796.42,2416.73L2712.3,2522.59Z"/>
            <path d="M2769.18,2377.38C2782.32,2373.16 2796.41,2380.39 2800.64,2393.52C2804.87,2406.66 2797.64,2420.75 2784.5,2424.98L2280.16,2587.3C2267.03,2591.53 2252.93,2584.29 2248.7,2571.16C2244.47,2558.03 2251.71,2543.93 2264.84,2539.7L2769.18,2377.38Z"/>
        </g>
    </g>
</svg>
